<svg width="24" height="24" viewBox="0 0 24 24" fill="none" xmlns="http://www.w3.org/2000/svg">
<path d="M11.9627 6.45735C10.3969 6.45161 9.25842 5.484 9.01754 3.91055C8.98312 3.67798 9.02327 3.37363 9.15805 3.20422C9.22688 3.11809 9.60541 3.20422 9.80329 3.30185C10.7611 3.75838 11.7189 4.19768 12.8115 3.8359C13.2847 3.67798 13.7349 3.45689 14.1995 3.27313C14.8705 3.00611 15.077 3.16977 14.9738 3.88471C14.7472 5.45241 13.5657 6.4631 11.9655 6.46022L11.9627 6.45735Z" fill="black"/>
<path d="M11.9454 19.475C16.3072 19.475 19.8431 15.9348 19.8431 11.5676C19.8431 7.20041 16.3072 3.66016 11.9454 3.66016C7.58367 3.66016 4.04492 7.20041 4.04492 11.5676C4.04492 15.9348 7.5808 19.475 11.9426 19.475H11.9454Z" fill="#FFD21E"/>
<path d="M19.8435 11.5676C19.8435 7.20044 16.3076 3.66019 11.9458 3.66019C7.58404 3.66019 4.04529 7.20044 4.04529 11.5676C4.04529 15.9348 7.58117 19.475 11.9429 19.475C16.3047 19.475 19.8406 15.9348 19.8406 11.5676H19.8435ZM3.13623 11.5676C3.13623 6.69797 7.07932 2.75 11.9458 2.75C16.8123 2.75 20.7525 6.69797 20.7525 11.5676C20.7525 16.4373 16.8094 20.3852 11.9458 20.3852C7.08219 20.3852 3.13623 16.4373 3.13623 11.5676Z" fill="#FF9D0B"/>
<path d="M14.5095 9.41712C14.7992 9.51761 14.9139 10.1148 15.2064 9.95978C15.7598 9.66404 15.9721 8.97494 15.6767 8.42079C15.3813 7.86664 14.6931 7.65417 14.1396 7.94991C13.5861 8.24564 13.3739 8.93474 13.6693 9.4889C13.8069 9.75018 14.2486 9.32524 14.5095 9.41712ZM9.1584 9.41712C8.86876 9.51761 8.75119 10.1148 8.46155 9.95978C7.90808 9.66404 7.69587 8.97494 7.99124 8.42079C8.28662 7.86664 8.97487 7.65417 9.52833 7.94991C10.0818 8.24564 10.294 8.93474 9.99864 9.4889C9.86099 9.75018 9.41649 9.32524 9.1584 9.41712Z" fill="#3A3B45"/>
<path d="M11.8884 14.8788C14.1223 14.8788 14.8421 12.8861 14.8421 11.8611C14.8421 11.3299 14.4865 11.4964 13.913 11.7778C13.3824 12.0391 12.6712 12.4009 11.8912 12.4009C10.2566 12.4009 8.9375 10.8361 8.9375 11.8582C8.9375 12.8804 9.65443 14.8759 11.8912 14.8759L11.8884 14.8788Z" fill="#FF323D"/>
<path fill-rule="evenodd" clip-rule="evenodd" d="M10.1762 14.3557C10.42 13.8618 10.8559 13.4914 11.3807 13.3335C11.4724 13.3048 11.5642 13.4627 11.6617 13.6235C11.7535 13.7786 11.8481 13.9365 11.9427 13.9365C12.046 13.9365 12.1463 13.7814 12.2438 13.6293C12.3471 13.4713 12.4474 13.3163 12.5449 13.345C13.0325 13.5001 13.4425 13.8417 13.6806 14.2954C14.5294 13.6264 14.8391 12.5353 14.8391 11.8606C14.8391 11.3294 14.4835 11.4959 13.91 11.7773L13.8784 11.7945C13.3536 12.0558 12.6539 12.4032 11.8854 12.4032C11.1168 12.4032 10.42 12.0587 9.89232 11.7945C9.30157 11.5017 8.93164 11.3179 8.93164 11.8606C8.93164 12.5554 9.26429 13.6953 10.1762 14.3557Z" fill="#3A3B45"/>
<path d="M17.2852 10.4884C17.6924 10.4884 18.0251 10.1582 18.0251 9.74762C18.0251 9.33703 17.6953 9.00684 17.2852 9.00684C16.8751 9.00684 16.5453 9.33703 16.5453 9.74762C16.5453 10.1582 16.8751 10.4884 17.2852 10.4884ZM6.71771 10.4884C7.12493 10.4884 7.45758 10.1582 7.45758 9.74762C7.45758 9.33703 7.1278 9.00684 6.71771 9.00684C6.30763 9.00684 5.97785 9.33703 5.97785 9.74762C5.97785 10.1582 6.30763 10.4884 6.71771 10.4884ZM5.19497 12.9921C4.8279 12.9921 4.49811 13.1414 4.2687 13.4171C4.07369 13.6583 3.96759 13.9626 3.96759 14.2727C3.8242 14.2296 3.67508 14.2067 3.52596 14.2038C3.17324 14.2038 2.85492 14.3388 2.63124 14.5828C2.21829 15.0106 2.14373 15.6653 2.45058 16.1764C2.24984 16.34 2.10645 16.5668 2.04336 16.8195C1.98888 17.0234 1.93439 17.4569 2.22403 17.8991C2.00321 18.2408 1.97167 18.6715 2.14086 19.0419C2.37315 19.5702 2.95242 19.9836 4.07656 20.4287C4.77341 20.7072 5.41578 20.8852 5.41865 20.8852C6.22734 21.1092 7.06184 21.2326 7.90208 21.2499C9.23269 21.2499 10.1876 20.8393 10.7354 20.0353C11.6186 18.7404 11.4924 17.5546 10.3482 16.4118C9.71733 15.7801 9.29865 14.847 9.21261 14.6431C9.03482 14.0373 8.56738 13.3654 7.7931 13.3654C7.37442 13.3711 6.98441 13.5807 6.74639 13.9253C6.51984 13.6382 6.29616 13.4142 6.09542 13.2821C5.82873 13.1012 5.51615 13.0007 5.1921 12.9921H5.19497ZM5.19497 13.9023C5.30967 13.9023 5.45306 13.9511 5.60791 14.0516C6.09542 14.3617 7.02743 15.9696 7.37155 16.5956C7.48626 16.8052 7.68413 16.8942 7.85906 16.8942C8.21179 16.8942 8.48422 16.5467 7.89347 16.1017C7.00162 15.4356 7.3142 14.3445 7.73862 14.2785C7.75582 14.2727 7.7759 14.2727 7.7931 14.2727C8.18024 14.2727 8.34944 14.9388 8.34944 14.9388C8.34944 14.9388 8.84842 16.1965 9.70873 17.055C10.5662 17.9135 10.6121 18.6026 9.98689 19.5185C9.55961 20.1444 8.74231 20.3339 7.90494 20.3339C7.06757 20.3339 6.14704 20.1301 5.65093 20.0009C5.62512 19.9951 2.59396 19.1366 2.97823 18.4073C3.04132 18.2839 3.14743 18.235 3.28221 18.235C3.8242 18.235 4.80496 19.0419 5.22938 19.0419C5.32114 19.0419 5.3871 19.0045 5.41865 18.904C5.59931 18.2551 2.67712 17.9824 2.92375 17.0435C2.96963 16.8769 3.08434 16.8109 3.25066 16.8109C3.96472 16.8109 5.56777 18.0685 5.90616 18.0685C5.93196 18.0685 5.95204 18.0628 5.96064 18.0455C6.12984 17.7728 6.0352 17.5804 4.84797 16.8626C3.66361 16.1448 2.82911 15.7112 3.30228 15.1944C3.35677 15.1341 3.4342 15.1082 3.52883 15.1082C4.24862 15.1082 5.95204 16.6616 5.95204 16.6616C5.95204 16.6616 6.41087 17.1382 6.69191 17.1382C6.75499 17.1382 6.80948 17.1153 6.84676 17.0521C7.04176 16.719 5.0143 15.18 4.90246 14.5455C4.82503 14.1119 4.95695 13.8966 5.2007 13.8966L5.19497 13.9023Z" fill="#FF9D0B"/>
<path d="M9.98705 19.5189C10.6122 18.6001 10.5663 17.911 9.70889 17.0525C8.84858 16.194 8.3496 14.9364 8.3496 14.9364C8.3496 14.9364 8.1632 14.2071 7.73878 14.276C7.31436 14.3449 7.00178 15.4331 7.89363 16.0993C8.78262 16.7654 7.71583 17.2191 7.37171 16.5931C7.03045 15.9672 6.09558 14.3593 5.60807 14.0492C5.12343 13.742 4.78218 13.9114 4.89688 14.5488C5.01159 15.1833 7.03906 16.7223 6.84119 17.0525C6.64331 17.3885 5.94933 16.662 5.94933 16.662C5.94933 16.662 3.77275 14.6809 3.29957 15.1977C2.8264 15.7145 3.66091 16.1481 4.84527 16.8659C6.03536 17.5837 6.12713 17.7761 5.95793 18.0489C5.78874 18.3216 3.16766 16.1079 2.92104 17.0468C2.67442 17.9828 5.5966 18.2527 5.41594 18.9016C5.23527 19.5505 3.35693 17.6785 2.97552 18.4049C2.58838 19.1342 5.62241 19.9927 5.64822 20.0013C6.62611 20.2569 9.11527 20.7966 9.98419 19.5189H9.98705Z" fill="#FFD21E"/>
<path d="M18.8049 12.9922C19.1719 12.9922 19.5017 13.1415 19.7311 13.4171C19.9261 13.6583 20.0322 13.9627 20.0322 14.2728C20.1756 14.2297 20.3247 14.2067 20.4767 14.2039C20.8295 14.2039 21.1478 14.3388 21.3715 14.5829C21.7844 15.0107 21.859 15.6653 21.5521 16.1764C21.7529 16.3401 21.8934 16.5669 21.9565 16.8196C22.011 17.0234 22.0654 17.457 21.7758 17.8992C21.9966 18.2408 22.0282 18.6715 21.859 19.0419C21.6267 19.5702 21.0474 19.9837 19.9261 20.4287C19.2264 20.7072 18.584 20.8853 18.5812 20.8853C17.7725 21.1092 16.938 21.2327 16.0978 21.2499C14.7671 21.2499 13.8122 20.8393 13.2645 20.0354C12.3812 18.7404 12.5074 17.5546 13.6516 16.4118C14.2825 15.7802 14.704 14.847 14.7901 14.6432C14.9679 14.0373 15.4324 13.3655 16.2096 13.3655C16.6283 13.3712 17.0183 13.5808 17.2563 13.9253C17.4829 13.6382 17.7065 13.4143 17.9073 13.2822C18.174 13.1013 18.4865 13.0008 18.8077 12.9922H18.8049ZM18.8049 13.9024C18.6902 13.9024 18.5468 13.9512 18.3919 14.0517C17.9073 14.3618 16.9724 15.9697 16.6283 16.5956C16.5336 16.7765 16.3472 16.8913 16.1408 16.8942C15.7909 16.8942 15.5156 16.5468 16.1092 16.1018C16.9982 15.4356 16.6856 14.3445 16.2612 14.2785C16.244 14.2756 16.2239 14.2728 16.2067 14.2728C15.8196 14.2728 15.6504 14.9389 15.6504 14.9389C15.6504 14.9389 15.1514 16.1965 14.294 17.055C13.4337 17.9135 13.3906 18.6026 14.0158 19.5185C14.4402 20.1445 15.2604 20.334 16.0949 20.334C16.9294 20.334 17.8528 20.1301 18.3518 20.0009C18.3747 19.9952 21.4087 19.1367 21.0245 18.4074C20.9585 18.2839 20.8553 18.2351 20.7205 18.2351C20.1785 18.2351 19.1949 19.0419 18.7733 19.0419C18.6787 19.0419 18.6127 19.0046 18.5841 18.9041C18.4034 18.2552 21.3227 17.9824 21.0761 17.0435C21.0331 16.877 20.9184 16.811 20.7492 16.811C20.0351 16.811 18.4321 18.0686 18.0937 18.0686C18.0707 18.0686 18.0507 18.0628 18.0421 18.0456C17.8729 17.7728 17.9646 17.5804 19.1519 16.8626C20.342 16.1448 21.1736 15.7113 20.6975 15.1944C20.6459 15.1341 20.5685 15.1083 20.4739 15.1083C19.7512 15.1083 18.0478 16.6616 18.0478 16.6616C18.0478 16.6616 17.589 17.1383 17.3108 17.1383C17.2477 17.1383 17.1875 17.1067 17.1559 17.0521C16.9581 16.7191 18.9855 15.1801 19.1002 14.5455C19.1777 14.112 19.0457 13.8966 18.802 13.8966L18.8049 13.9024Z" fill="#FF9D0B"/>
<path d="M14.0163 19.5189C13.3911 18.6001 13.4342 17.911 14.2945 17.0525C15.1519 16.194 15.6509 14.9364 15.6509 14.9364C15.6509 14.9364 15.8373 14.2071 16.2646 14.276C16.6861 14.3449 16.9987 15.4331 16.1097 16.0993C15.2179 16.7654 16.2875 17.2191 16.6288 16.5931C16.9729 15.9672 17.9078 14.3593 18.3924 14.0492C18.8771 13.742 19.2183 13.9114 19.1036 14.5488C18.9889 15.1833 16.9614 16.7223 17.1593 17.0525C17.3543 17.3885 18.0512 16.662 18.0512 16.662C18.0512 16.662 20.2277 14.6809 20.7009 15.1977C21.1741 15.7145 20.3424 16.1481 19.1552 16.8659C17.9651 17.5837 17.8762 17.7761 18.0426 18.0489C18.2117 18.3216 20.8328 16.1079 21.0794 17.0468C21.3261 17.9828 18.4067 18.2527 18.5874 18.9016C18.7681 19.5505 20.6436 17.6785 21.0278 18.4049C21.4121 19.1342 18.3809 19.9927 18.3551 20.0013C17.3744 20.2569 14.8881 20.7966 14.0192 19.5189H14.0163Z" fill="#FFD21E"/>
</svg>
